<svg width="140" height="142" viewBox="0 0 140 142" fill="none" xmlns="http://www.w3.org/2000/svg">
<g clip-path="url(#clip0_5_105)">
<path fill-rule="evenodd" clip-rule="evenodd" d="M138.249 49.8211C133.653 35.3036 124.451 22.6795 112.037 13.8611C99.6222 5.04265 84.6722 0.510423 69.451 0.950961C54.2298 1.3915 39.5668 6.78079 27.6833 16.3024C15.7999 25.8241 7.34345 38.9593 3.59495 53.7183C-0.15356 68.4773 1.01016 84.0558 6.90984 98.0941C12.8095 112.132 23.1237 123.865 36.29 131.516C49.4562 139.166 64.7571 142.317 79.8748 140.491C94.9925 138.666 109.103 131.962 120.07 121.397H120.1L120.669 120.828C123.42 118.065 124.962 114.323 124.958 110.425C124.954 106.526 123.403 102.789 120.646 100.032C117.89 97.2751 114.152 95.7244 110.253 95.7201C106.355 95.7157 102.613 97.258 99.8506 100.009V99.9985C94.2153 105.514 87.0944 109.267 79.3593 110.798C71.6243 112.329 63.6108 111.572 56.2993 108.619C48.9879 105.667 42.6957 100.647 38.1931 94.1734C33.6904 87.7004 31.1724 80.055 30.9473 72.1731C30.7223 64.2912 32.7999 56.5147 36.9259 49.7952C41.0519 43.0758 47.0474 37.7049 54.1785 34.3399C61.3095 30.9749 69.2668 29.7618 77.0766 30.8491C84.8864 31.9363 92.2099 35.2768 98.1507 40.4615L100.121 42.4414C101.041 43.3744 101.555 44.6337 101.551 45.9444C101.547 47.2551 101.024 48.5109 100.097 49.4378C99.1705 50.3646 97.9147 50.8872 96.6039 50.8916C95.2932 50.896 94.0339 50.3817 93.1009 49.4611L90.3711 46.7212L90.2711 46.8212C90.2277 46.6993 90.1556 46.5896 90.061 46.5012C85.4259 42.9912 79.8905 40.8676 74.097 40.3769C68.3036 39.8863 62.4898 41.0487 57.3304 43.7293C52.171 46.4099 47.8776 50.4987 44.9485 55.5211C42.0193 60.5436 40.5747 66.2937 40.782 72.1042C40.9894 77.9147 42.8404 83.5473 46.1201 88.3481C49.3999 93.149 53.9738 96.9213 59.3111 99.2272C64.6485 101.533 70.5304 102.278 76.2741 101.376C82.0179 100.473 87.388 97.9604 91.761 94.1288C92.5844 93.209 93.0362 92.0158 93.0288 90.7813C93.0214 89.5468 92.5553 88.3591 91.721 87.4492C89.7511 85.3193 86.3813 85.8793 84.7113 87.2492C81.6667 89.7254 77.9869 91.2951 74.0924 91.7792C70.1979 92.2632 66.2457 91.6419 62.6876 89.9863C59.1294 88.3307 56.1087 85.7076 53.9706 82.4167C51.8325 79.1258 50.6633 75.2998 50.5965 71.3759C50.5297 67.452 51.5681 63.5885 53.5929 60.2267C55.6178 56.8649 58.5474 54.1405 62.0472 52.3648C65.547 50.5891 69.4757 49.8337 73.3844 50.1849C77.2931 50.5361 81.0243 51.9797 84.1514 54.3508L84.1813 54.3308L85.9513 56.1008C88.7142 58.8513 92.4553 60.3936 96.3539 60.3893C100.253 60.3849 103.99 58.8342 106.747 56.0775C109.504 53.3208 111.054 49.5831 111.059 45.6845C111.063 41.7858 109.521 38.0447 106.77 35.2818L106.55 35.0618C106.516 34.9045 106.44 34.7593 106.33 34.6418C99.1673 27.7874 90.1407 23.1994 80.3816 21.4527C70.6225 19.7061 60.5649 20.8784 51.4691 24.823C42.3734 28.7675 34.644 35.3086 29.2497 43.6269C23.8553 51.9451 21.036 61.6703 21.1447 71.5839C21.2535 81.4975 24.2855 91.1585 29.8611 99.3564C35.4366 107.554 43.3077 113.924 52.4877 117.668C61.6678 121.412 71.7487 122.364 81.4671 120.403C91.1856 118.443 100.109 113.658 107.12 106.648C107.135 106.614 107.152 106.581 107.17 106.548C108.073 105.704 109.259 105.228 110.495 105.214C111.731 105.201 112.927 105.65 113.848 106.473C114.77 107.297 115.35 108.436 115.474 109.665C115.598 110.895 115.258 112.127 114.52 113.118C105.389 122.445 93.4715 128.549 80.5668 130.509C67.6621 132.469 54.4699 130.179 42.9809 123.985C31.4919 117.79 22.3293 108.026 16.8758 96.1673C11.4223 84.3084 9.97363 70.9976 12.7485 58.2432C15.5234 45.4888 22.3713 33.983 32.2588 25.4618C42.1463 16.9406 54.5371 11.8663 67.5613 11.0047C80.5856 10.1431 93.5367 13.5409 104.461 20.6854C115.384 27.8298 123.688 38.3334 128.119 50.611C128.849 52.6409 130.559 55.6008 134.049 55.3808C134.724 55.38 135.39 55.2229 135.994 54.9217C136.598 54.6206 137.124 54.1835 137.531 53.6449C137.938 53.1063 138.214 52.4807 138.339 51.8173C138.463 51.1539 138.433 50.4706 138.249 49.8211Z" stroke="white" stroke-width="1.9999" stroke-miterlimit="10" stroke-linecap="round" stroke-linejoin="round"/>
</g>
<defs>
<clipPath id="clip0_5_105">
<rect width="138.922" height="142" fill="white" transform="translate(0.515625)"/>
</clipPath>
</defs>
</svg>
