<svg width="140" height="122" viewBox="0 0 140 122" fill="none" xmlns="http://www.w3.org/2000/svg">
<g clip-path="url(#clip0_5_77)">
<path d="M0.0200588 108.47C0.0321975 108.522 0.0489143 108.572 0.0700318 108.62C0.0754739 108.652 0.0855822 108.682 0.100022 108.71L7.37788 121.328L7.40787 121.358C7.42801 121.39 7.45147 121.42 7.47785 121.448C7.51784 121.488 7.55782 121.518 7.59781 121.558C7.6278 121.578 7.63781 121.608 7.6678 121.618C7.67953 121.626 7.69367 121.629 7.70777 121.628C7.81632 121.683 7.93582 121.714 8.05767 121.718H131.891C132.013 121.714 132.133 121.683 132.241 121.628C132.271 121.608 132.291 121.588 132.321 121.568C132.402 121.517 132.47 121.449 132.521 121.368C132.531 121.348 132.551 121.338 132.571 121.318L139.859 108.7C139.869 108.69 139.869 108.67 139.879 108.66C139.898 108.63 139.912 108.596 139.919 108.56C139.929 108.53 139.939 108.49 139.949 108.46C139.957 108.428 139.96 108.394 139.959 108.36C139.959 108.34 139.969 108.33 139.969 108.31C139.969 108.29 139.959 108.28 139.959 108.26C139.959 108.24 139.949 108.19 139.949 108.16C139.949 108.131 139.929 108.091 139.919 108.061C139.908 108.026 139.895 107.993 139.879 107.961C139.869 107.951 139.869 107.931 139.859 107.921L77.9471 0.671904C77.9296 0.646516 77.9095 0.623056 77.8871 0.601918C77.8558 0.557324 77.8189 0.516994 77.7771 0.481942C77.6987 0.424215 77.6151 0.374003 77.5272 0.331972C77.4751 0.31626 77.4215 0.306205 77.3673 0.301978C77.3373 0.301978 77.3073 0.281982 77.2673 0.281982H62.7016C62.6816 0.281982 62.6716 0.29198 62.6516 0.29198C62.6316 0.29198 62.5816 0.301978 62.5516 0.301978L62.4416 0.331972C62.4073 0.342677 62.3739 0.356048 62.3417 0.371964C62.33 0.379916 62.3158 0.383458 62.3017 0.381962C62.2903 0.394312 62.2767 0.404476 62.2617 0.411956C62.2333 0.4295 62.2065 0.449578 62.1817 0.471944C62.1526 0.496027 62.1258 0.522807 62.1017 0.551928C62.0817 0.581922 62.0618 0.601918 62.0418 0.631912C62.0294 0.643305 62.0193 0.656858 62.0118 0.671904L0.090015 107.931C0.0755754 107.959 0.0654671 107.989 0.060025 108.021C0.0388923 108.069 0.0221751 108.119 0.0100519 108.171C0.00174567 108.22 -0.001613 108.27 4.51313e-05 108.32C0.0100422 108.37 0.0100617 108.42 0.0200588 108.47ZM76.8174 1.85167L137.829 107.531H31.2808L37.659 96.4928H117.345C117.469 96.4918 117.59 96.4573 117.695 96.3929C117.705 96.3829 117.725 96.3928 117.735 96.3828C117.761 96.3654 117.784 96.3453 117.805 96.3229C117.848 96.289 117.888 96.2522 117.925 96.2129C117.955 96.1753 117.982 96.1351 118.005 96.0929C118.035 96.0549 118.056 96.0103 118.065 95.9629C118.086 95.9121 118.096 95.8577 118.095 95.803C118.095 95.773 118.115 95.743 118.115 95.703C118.115 95.683 118.105 95.673 118.105 95.653C118.1 95.6022 118.09 95.5519 118.075 95.503C118.063 95.4516 118.046 95.4014 118.025 95.3531C118.015 95.343 118.015 95.3231 118.005 95.3131L64.0512 1.85167H76.8174ZM131.451 120.148H9.42726L62.7016 27.8665L69.0797 38.9043L29.2314 107.921C29.2235 107.932 29.2199 107.946 29.2214 107.961C29.2003 108.009 29.1836 108.059 29.1714 108.111C29.1567 108.159 29.1466 108.21 29.1415 108.26C29.1415 108.28 29.1315 108.29 29.1315 108.31C29.1315 108.33 29.1515 108.37 29.1515 108.41C29.1566 108.465 29.1666 108.518 29.1814 108.57C29.2014 108.62 29.2214 108.66 29.2414 108.7C29.2658 108.742 29.2925 108.782 29.3214 108.82C29.3614 108.86 29.4014 108.89 29.4414 108.93C29.4714 108.95 29.4814 108.98 29.5114 108.99C29.5214 109 29.5413 108.99 29.5513 109C29.6592 109.059 29.7787 109.093 29.9012 109.1H137.809L131.451 120.148ZM101.41 94.9231H38.5587L69.9894 40.484L101.41 94.9231ZM62.7016 2.64151L115.976 94.9231H103.23L63.3914 25.9069C63.379 25.8955 63.3689 25.8819 63.3614 25.8669C63.3314 25.8269 63.2914 25.7869 63.2614 25.7469C63.2261 25.7083 63.1857 25.6747 63.1414 25.6469C63.1301 25.6346 63.1165 25.6244 63.1014 25.6169C63.0731 25.6025 63.0428 25.5924 63.0115 25.5869C62.9631 25.5658 62.9129 25.5491 62.8615 25.537C62.762 25.5236 62.6612 25.5236 62.5616 25.537C62.5102 25.5491 62.46 25.5658 62.4116 25.5869C62.3803 25.5924 62.35 25.6025 62.3217 25.6169C62.3103 25.6293 62.2968 25.6395 62.2817 25.6469C62.2417 25.6769 62.2017 25.7169 62.1617 25.7469C62.1204 25.7795 62.0864 25.8204 62.0618 25.8669C62.0494 25.8783 62.0393 25.8918 62.0318 25.9069L8.07768 119.368L1.69956 108.33L62.7016 2.64151Z" fill="white"/>
</g>
<defs>
<clipPath id="clip0_5_77">
<rect width="139.969" height="121.438" fill="white" transform="translate(0 0.28125)"/>
</clipPath>
</defs>
</svg>
