<svg width="141" height="122" viewBox="0 0 141 122" fill="none" xmlns="http://www.w3.org/2000/svg">
<path d="M116.898 101.65C116.908 101.64 116.908 101.62 116.918 101.61C116.938 101.579 116.951 101.545 116.958 101.51C116.968 101.48 116.978 101.44 116.988 101.41C116.997 101.377 117 101.343 116.998 101.31C116.998 101.29 117.008 101.28 117.008 101.26C117.008 101.24 116.998 101.23 116.998 101.21C116.998 101.19 116.988 101.14 116.988 101.11C116.988 101.08 116.968 101.04 116.958 101.01C116.948 100.976 116.934 100.942 116.918 100.91C116.908 100.9 116.908 100.88 116.898 100.87L105.682 81.4448H128.104C128.226 81.4411 128.346 81.4103 128.454 81.3549C128.484 81.3349 128.504 81.3149 128.534 81.2949C128.615 81.2441 128.683 81.1757 128.734 81.0949C128.744 81.0749 128.764 81.0649 128.784 81.0449L140.14 61.38C140.15 61.37 140.15 61.35 140.16 61.34C140.179 61.3094 140.193 61.2755 140.2 61.24C140.21 61.21 140.22 61.17 140.23 61.14C140.238 61.1074 140.242 61.0737 140.24 61.0401C140.24 61.0201 140.25 61.0101 140.25 60.9901C140.25 60.9701 140.24 60.9601 140.24 60.9401C140.24 60.9201 140.23 60.8701 140.23 60.8401C140.23 60.8101 140.21 60.7701 140.2 60.7401C140.189 60.7058 140.176 60.6724 140.16 60.6402C140.15 60.6302 140.15 60.6102 140.14 60.6002L128.784 40.9352C128.767 40.9098 128.747 40.8864 128.724 40.8652C128.693 40.8204 128.656 40.7801 128.614 40.7453C128.572 40.713 128.529 40.6829 128.484 40.6553C128.444 40.6294 128.4 40.6092 128.354 40.5953C128.303 40.5757 128.249 40.5656 128.194 40.5653C128.164 40.5653 128.134 40.5453 128.104 40.5453H105.682L116.898 21.1203C116.908 21.1103 116.908 21.0903 116.918 21.0803C116.938 21.0497 116.951 21.0158 116.958 20.9803C116.968 20.9503 116.978 20.9104 116.988 20.8804C116.997 20.8477 117 20.814 116.998 20.7804C116.998 20.7604 117.008 20.7504 117.008 20.7304C117.008 20.7104 116.998 20.7004 116.998 20.6804C116.998 20.6604 116.988 20.6104 116.988 20.5804C116.988 20.5504 116.968 20.5105 116.958 20.4805C116.948 20.4462 116.934 20.4127 116.918 20.3805C116.908 20.3705 116.908 20.3505 116.898 20.3405L105.552 0.675545C105.535 0.650159 105.515 0.6267 105.492 0.605563C105.462 0.563193 105.429 0.523096 105.392 0.485593C105.351 0.453278 105.307 0.423243 105.262 0.395617C105.222 0.369691 105.178 0.349502 105.132 0.335632C105.081 0.316058 105.027 0.305896 104.972 0.30564C104.942 0.30564 104.913 0.285645 104.883 0.285645H82.1806C82.1606 0.285645 82.1506 0.295642 82.1306 0.295642C82.1106 0.295642 82.0606 0.30564 82.0306 0.30564L81.9207 0.335632C81.889 0.344692 81.8586 0.358153 81.8306 0.375622C81.8189 0.383573 81.8048 0.387115 81.7907 0.385619L81.7607 0.415611C81.7323 0.433122 81.7055 0.453201 81.6808 0.475596C81.6516 0.499678 81.6248 0.526456 81.6007 0.555576C81.5807 0.585568 81.5608 0.605563 81.5408 0.635555C81.5285 0.646948 81.5183 0.6605 81.5108 0.675545L70.2948 20.1006L59.0788 0.675545C59.0613 0.650159 59.0411 0.6267 59.0187 0.605563C58.9848 0.56313 58.9481 0.523047 58.9088 0.485593C58.8712 0.455519 58.831 0.428759 58.7888 0.405614C58.7485 0.379688 58.7048 0.3595 58.6589 0.34563C58.6081 0.32517 58.5537 0.314977 58.4989 0.315638C58.4689 0.315638 58.4389 0.295642 58.409 0.295642H35.707C35.687 0.295642 35.677 0.30564 35.657 0.30564C35.637 0.30564 35.587 0.315638 35.557 0.315638L35.4471 0.34563C35.4154 0.354689 35.385 0.36815 35.357 0.385619C35.3453 0.393571 35.3312 0.397113 35.3171 0.395617C35.3057 0.407966 35.2921 0.41813 35.2771 0.425609C35.2487 0.44312 35.2219 0.463198 35.1972 0.485593C35.1681 0.509674 35.1412 0.536454 35.1171 0.565573C35.0971 0.595566 35.0772 0.615561 35.0572 0.645553C35.0449 0.656945 35.0347 0.670498 35.0272 0.685543L23.6812 20.3505C23.6668 20.3788 23.6566 20.4092 23.6512 20.4405C23.6301 20.4889 23.6133 20.5391 23.6012 20.5904C23.5878 20.69 23.5878 20.7908 23.6012 20.8904C23.6133 20.9417 23.6301 20.9919 23.6512 21.0403C23.6566 21.0716 23.6668 21.102 23.6812 21.1303L34.8972 40.5553H12.4752C12.4552 40.5553 12.4452 40.5653 12.4252 40.5653C12.4052 40.5653 12.3552 40.5753 12.3252 40.5753L12.2153 40.6053C12.1836 40.6144 12.1532 40.6278 12.1252 40.6453C12.1152 40.6553 12.0953 40.6553 12.0853 40.6653L12.0553 40.6953C12.0269 40.7128 12.0002 40.7329 11.9754 40.7553C11.9463 40.7794 11.9194 40.8061 11.8953 40.8353C11.8753 40.8652 11.8554 40.8852 11.8354 40.9152C11.8231 40.9266 11.8129 40.9402 11.8054 40.9552L0.44943 60.6202C0.434992 60.6485 0.424853 60.6788 0.419412 60.7102C0.39828 60.7585 0.381503 60.8087 0.36938 60.8601C0.35604 60.9596 0.35604 61.0605 0.36938 61.16C0.381503 61.2114 0.39828 61.2616 0.419412 61.31C0.424853 61.3413 0.434992 61.3717 0.44943 61.4L11.8054 81.0649L11.8354 81.0949C11.8556 81.1272 11.879 81.1574 11.9053 81.1849C11.9453 81.2249 11.9853 81.2549 12.0253 81.2949C12.0553 81.3149 12.0654 81.3449 12.0953 81.3549C12.1071 81.3628 12.1212 81.3664 12.1352 81.3649C12.2438 81.4203 12.3633 81.4511 12.4851 81.4548H34.9072L23.7012 100.88C23.6868 100.908 23.6767 100.939 23.6712 100.97C23.6501 101.018 23.6333 101.068 23.6212 101.12C23.6078 101.219 23.6078 101.32 23.6212 101.42C23.6333 101.471 23.6501 101.521 23.6712 101.57C23.6767 101.601 23.6868 101.631 23.7012 101.66L35.0472 121.325L35.0772 121.355C35.0974 121.387 35.1208 121.417 35.1471 121.445C35.1871 121.485 35.2271 121.515 35.2671 121.555C35.2971 121.575 35.3072 121.605 35.3371 121.615C35.3489 121.622 35.363 121.626 35.377 121.625C35.4856 121.68 35.6051 121.711 35.7269 121.715H58.429C58.5508 121.711 58.6703 121.68 58.7788 121.625C58.8088 121.605 58.8288 121.585 58.8587 121.565C58.9395 121.514 59.008 121.445 59.0587 121.365C59.0687 121.345 59.0887 121.335 59.1087 121.315L70.3248 101.89L81.5408 121.315L81.5708 121.345C81.591 121.377 81.6144 121.407 81.6407 121.435C81.6807 121.475 81.7207 121.505 81.7607 121.545C81.7907 121.565 81.8006 121.595 81.8306 121.605C81.8423 121.613 81.8566 121.616 81.8706 121.615C81.9792 121.67 82.0987 121.701 82.2205 121.705H104.923C105.044 121.701 105.164 121.67 105.272 121.615C105.302 121.595 105.322 121.575 105.352 121.555C105.433 121.504 105.502 121.435 105.552 121.355C105.562 121.335 105.582 121.325 105.602 121.305L116.898 101.65ZM104.413 120.135H83.5201L93.9663 102.04H114.859L104.413 120.135ZM57.9291 120.135H37.0365L59.3786 81.4448H80.2712L57.9291 120.135ZM13.7947 79.8652L24.241 61.7699H68.9153L58.4689 79.8652H13.7947ZM12.4352 42.8947L22.8815 60.9901L12.4352 79.0854L1.9888 60.9901L12.4352 42.8947ZM25.2306 20.7204L35.677 2.62504L58.0191 41.3151L47.5728 59.4105L25.2306 20.7204ZM82.1706 2.63504L92.6169 20.7304L70.2848 59.4205L59.8384 41.3251L82.1706 2.63504ZM104.413 1.84525L114.859 19.9406H93.9663L83.5201 1.84525H104.413ZM127.665 42.1149L138.111 60.2103H93.4366L82.9902 42.1149H127.665ZM81.6207 42.8947L91.6072 60.2003H71.6243L81.6207 42.8947ZM68.9153 60.2003H48.9323L58.9188 42.8947L68.9153 60.2003ZM70.2748 62.5597L80.2612 79.8652H60.2783L70.2748 62.5597ZM71.6343 61.7799H92.5169L114.849 100.47H93.9563L71.6343 61.7799ZM94.3362 61.7799H138.101L127.655 79.8752H104.773L94.3362 61.7799ZM82.9902 40.5353L93.9764 21.5102H114.869L103.883 40.5353H82.9902ZM58.9188 39.7555L37.0365 1.84525H57.9291L69.3751 21.6602L58.9188 39.7555ZM46.2033 60.2003H24.231L13.7847 42.1049H35.7569L46.2033 60.2003ZM57.5593 81.4448L35.677 119.355L25.2306 101.26L36.6666 81.4448H57.5593ZM81.6207 82.2246L92.6068 101.25L82.1606 119.345L71.1745 100.31L81.6207 82.2246Z" fill="white"/>
</svg>
