<svg width="151" height="140" viewBox="0 0 151 140" fill="none" xmlns="http://www.w3.org/2000/svg">
<path d="M0.697445 99.8007C0.708079 99.8558 0.724848 99.9094 0.747437 99.9607C0.757436 99.9907 0.767435 100.031 0.777433 100.061L12.1858 119.818L12.2158 119.848C12.2358 119.878 12.2557 119.908 12.2857 119.948C12.3243 119.99 12.368 120.027 12.4157 120.058C12.4457 120.078 12.4657 120.108 12.4957 120.128C12.5074 120.136 12.5216 120.139 12.5357 120.138C12.6489 120.201 12.776 120.235 12.9057 120.238H58.039L69.2074 139.575L69.2374 139.605C69.2574 139.635 69.2774 139.665 69.3074 139.705C69.346 139.747 69.3896 139.784 69.4374 139.815C69.4674 139.835 69.4873 139.865 69.5173 139.885C69.5291 139.893 69.5432 139.896 69.5573 139.895C69.6705 139.958 69.7976 139.992 69.9273 139.995H138.367C138.5 139.993 138.63 139.958 138.747 139.895L138.837 139.835C138.922 139.778 138.997 139.707 139.057 139.625C139.067 139.605 139.097 139.595 139.107 139.575L150.515 119.818C150.525 119.798 150.525 119.788 150.535 119.768C150.553 119.736 150.566 119.703 150.575 119.668C150.585 119.628 150.595 119.598 150.605 119.558C150.614 119.522 150.617 119.485 150.615 119.448C150.615 119.428 150.625 119.418 150.625 119.398C150.625 119.378 150.615 119.368 150.615 119.348C150.615 119.308 150.605 119.278 150.605 119.238C150.605 119.198 150.585 119.168 150.575 119.128C150.564 119.094 150.55 119.061 150.535 119.028C150.525 119.008 150.525 118.998 150.515 118.978L127.949 79.8937L139.107 60.5565C139.117 60.5365 139.117 60.5265 139.127 60.5065C139.145 60.475 139.158 60.4414 139.167 60.4065C139.177 60.3665 139.187 60.3365 139.197 60.2965C139.205 60.2605 139.209 60.2235 139.207 60.1865C139.207 60.1665 139.217 60.1565 139.217 60.1365C139.217 60.1166 139.207 60.1066 139.207 60.0866C139.207 60.0466 139.197 60.0166 139.197 59.9766C139.197 59.9366 139.177 59.9066 139.167 59.8666C139.156 59.8326 139.142 59.7992 139.127 59.7666C139.117 59.7466 139.117 59.7366 139.107 59.7166L104.902 0.435308C104.882 0.405312 104.852 0.385315 104.832 0.35532C104.798 0.309945 104.761 0.266548 104.722 0.225339C104.681 0.192006 104.638 0.161919 104.592 0.135352C104.549 0.106117 104.502 0.0825943 104.452 0.0653622C104.394 0.0462327 104.333 0.0328384 104.272 0.0253681C104.242 0.0253681 104.212 0.00537109 104.172 0.00537109H81.3556C81.3356 0.00537109 81.3256 0.0153696 81.3056 0.0153696C81.2656 0.0153696 81.2356 0.0253681 81.1956 0.0253681L81.0757 0.0553637C81.0457 0.0653622 81.0057 0.0853594 80.9757 0.0953579C80.9457 0.105356 80.9457 0.105356 80.9257 0.115355C80.9143 0.127705 80.9007 0.137871 80.8857 0.145351C80.8533 0.1655 80.8232 0.188956 80.7957 0.21534C80.7666 0.239424 80.7398 0.266206 80.7157 0.295329C80.6957 0.325324 80.6657 0.35532 80.6457 0.385315C80.6334 0.396709 80.6232 0.410263 80.6157 0.425309L58.049 39.5196H35.7323C35.7123 39.5196 35.7023 39.5296 35.6823 39.5296C35.6423 39.5296 35.6123 39.5396 35.5723 39.5396C35.5323 39.5396 35.4923 39.5596 35.4623 39.5696C35.4283 39.5812 35.395 39.5945 35.3624 39.6096C35.3424 39.6196 35.3324 39.6196 35.3124 39.6296C35.2924 39.6396 35.2924 39.6496 35.2724 39.6596C35.24 39.6797 35.2099 39.7032 35.1824 39.7295C35.1533 39.7536 35.1265 39.7804 35.1024 39.8095C35.0824 39.8395 35.0524 39.8695 35.0324 39.8995C35.0201 39.9109 35.0099 39.9245 35.0024 39.9395L0.787432 99.2208C0.772892 99.2526 0.762799 99.2863 0.757436 99.3208C0.736247 99.3726 0.719522 99.4261 0.707443 99.4808C0.691572 99.5325 0.684806 99.5867 0.687446 99.6408C0.685791 99.6943 0.689138 99.7478 0.697445 99.8007ZM103.682 1.70512L136.927 59.2867H116.071L82.8154 1.70512H103.682ZM115.091 98.8009H94.2237L116.061 60.9664H136.927L115.091 98.8009ZM81.3556 2.545L114.601 60.1265L92.7639 97.961L82.3355 79.8837L93.5038 60.5465C93.5138 60.5265 93.5138 60.5165 93.5238 60.4965C93.5414 60.465 93.5548 60.4314 93.5638 60.3965C93.5738 60.3565 93.5838 60.3265 93.5938 60.2865C93.6021 60.2505 93.6055 60.2135 93.6038 60.1765C93.6038 60.1565 93.6138 60.1465 93.6138 60.1265C93.6138 60.1066 93.6038 60.0966 93.6038 60.0766C93.6038 60.0366 93.5938 60.0066 93.5938 59.9666C93.5938 59.9266 93.5738 59.8966 93.5638 59.8566C93.5522 59.8226 93.5389 59.7892 93.5238 59.7566C93.5138 59.7366 93.5138 59.7266 93.5038 59.7066L82.0855 39.9495C82.0655 39.9195 82.0355 39.8995 82.0155 39.8695C81.9813 39.8241 81.9446 39.7808 81.9055 39.7395C81.8646 39.7062 81.8211 39.6761 81.7755 39.6496C81.731 39.6223 81.6841 39.5988 81.6356 39.5796C81.581 39.5599 81.5235 39.5498 81.4656 39.5496C81.4356 39.5496 81.3956 39.5296 81.3656 39.5296H60.0087L81.3556 2.545ZM58.549 41.2193H80.8757L91.3141 59.2867H47.6306L37.1921 41.2193H58.549ZM35.7323 42.0592L46.1608 60.1265L12.9157 117.708L2.48718 99.6408L35.7323 42.0592ZM14.3854 118.548L47.6306 60.9664H91.3141L80.8757 79.0438H58.549C58.529 79.0438 58.519 79.0538 58.499 79.0538C58.459 79.0538 58.429 79.0638 58.389 79.0638L58.269 79.0938C58.239 79.1038 58.199 79.1238 58.169 79.1338C58.139 79.1438 58.139 79.1438 58.119 79.1538C58.1076 79.1661 58.0941 79.1763 58.079 79.1838C58.0467 79.2039 58.0165 79.2274 57.989 79.2537C57.9599 79.2778 57.9331 79.3046 57.909 79.3337C57.889 79.3637 57.8591 79.3937 57.8391 79.4237C57.8291 79.4337 57.8091 79.4437 57.8091 79.4637L46.4007 99.2208C46.3862 99.2526 46.3761 99.2863 46.3707 99.3208C46.3496 99.3726 46.3328 99.4261 46.3207 99.4808C46.3121 99.5336 46.3088 99.5872 46.3108 99.6408C46.3091 99.6943 46.3124 99.7478 46.3207 99.8007C46.3314 99.8558 46.3481 99.9094 46.3707 99.9607C46.3807 99.9907 46.3907 100.031 46.4007 100.061L57.0792 118.548H14.3854ZM137.907 138.305H71.4171L81.8455 120.238H148.336L137.907 138.305ZM69.9573 137.465L48.1205 99.6408L58.559 81.5634L80.3958 119.388L69.9573 137.465ZM148.336 118.548H81.8455L60.0087 80.7235H80.8757L92.044 100.061L92.074 100.091C92.0939 100.126 92.1174 100.16 92.144 100.191C92.1826 100.233 92.2263 100.27 92.274 100.301C92.304 100.321 92.324 100.351 92.354 100.371C92.3657 100.379 92.3799 100.382 92.394 100.381C92.5072 100.444 92.6343 100.478 92.7639 100.481H115.581C115.713 100.478 115.844 100.444 115.961 100.381L116.051 100.321C116.135 100.264 116.21 100.193 116.27 100.111C116.28 100.091 116.31 100.081 116.32 100.061L126.999 81.5634L148.336 118.548Z" fill="white"/>
</svg>
